<?xml version="1.0" encoding="UTF-8" ?>
<!DOCTYPE svg PUBLIC "-//W3C//DTD SVG 1.1//EN" "http://www.w3.org/Graphics/SVG/1.1/DTD/svg11.dtd">
<svg width="1073pt" height="920pt" viewBox="0 0 1073 920" version="1.1" xmlns="http://www.w3.org/2000/svg">
<g id="#003772ff">
<path fill="#003772" opacity="1.00" d=" M 530.58 37.59 C 533.62 36.73 536.86 36.07 539.97 37.01 C 613.44 56.24 684.87 82.59 754.71 112.29 C 761.41 115.28 768.34 117.76 774.81 121.25 C 769.46 159.24 763.70 197.18 758.87 235.23 C 765.17 232.28 771.00 228.46 777.10 225.12 C 808.73 207.17 841.08 190.47 874.05 175.10 C 876.93 173.90 880.24 171.46 883.34 173.52 C 938.47 201.08 992.08 231.57 1045.15 262.88 C 1050.82 266.31 1056.61 269.53 1062.14 273.19 C 1044.97 285.67 1027.54 297.81 1010.54 310.54 C 955.57 351.42 902.41 394.74 851.02 440.04 C 847.99 443.19 843.56 440.53 839.98 440.03 C 749.31 419.17 657.92 401.51 566.04 386.90 C 556.84 385.67 547.72 383.73 538.46 383.03 C 541.81 386.28 545.69 388.89 549.49 391.57 C 612.30 437.37 674.14 484.51 734.44 533.57 C 736.28 535.09 738.08 536.66 739.90 538.22 C 732.82 545.71 724.86 552.30 717.61 559.62 C 658.72 615.71 599.76 671.75 540.90 727.89 C 539.58 729.05 538.24 730.19 536.90 731.34 C 531.98 727.55 527.84 722.90 523.38 718.62 C 421.23 620.23 318.12 522.74 211.02 429.71 C 212.81 425.38 214.91 421.19 217.10 417.05 C 245.17 362.01 273.60 307.11 304.68 253.69 C 307.81 248.12 311.56 242.89 314.21 237.06 C 309.00 239.34 304.19 242.40 299.26 245.22 C 241.94 278.25 185.71 313.14 130.40 349.43 C 127.41 351.30 124.66 353.78 121.20 354.75 C 117.90 352.84 115.17 350.11 112.18 347.78 C 82.58 324.08 51.92 301.73 20.67 280.27 C 17.60 278.18 14.56 276.05 11.59 273.81 C 17.89 269.17 24.95 265.72 31.59 261.59 C 120.12 209.41 210.77 160.62 304.56 118.53 C 308.49 116.71 312.50 114.56 316.96 114.59 C 382.69 114.66 448.42 117.20 513.97 122.03 C 520.56 122.40 527.13 123.40 533.74 123.08 C 531.86 121.93 529.94 120.85 527.92 119.98 C 489.08 104.11 449.66 89.67 409.86 76.41 C 415.90 73.60 422.36 71.89 428.62 69.67 C 462.37 58.23 496.17 46.89 530.58 37.59 M 534.23 125.09 C 477.94 149.96 422.77 177.35 368.59 206.52 C 351.01 216.19 333.25 225.58 316.00 235.83 C 320.29 238.66 324.75 241.21 329.17 243.83 C 366.66 266.27 403.36 290.00 439.57 314.43 C 472.47 336.49 504.70 359.53 537.04 382.39 C 542.35 379.00 547.31 375.12 552.46 371.50 C 615.26 326.59 679.11 283.03 745.45 243.47 C 749.70 240.97 754.10 238.68 758.01 235.63 C 688.25 193.33 615.21 156.48 539.97 124.98 C 538.12 124.09 536.04 124.16 534.23 125.09 Z" />
<path fill="#003772" opacity="1.00" d=" M 514.47 164.61 C 539.32 162.32 564.63 163.87 588.81 170.21 C 604.32 174.25 619.38 180.39 632.77 189.26 C 642.23 195.59 650.86 203.47 656.70 213.32 C 662.74 223.43 665.44 235.89 662.43 247.44 C 659.14 261.09 649.70 272.35 638.87 280.86 C 622.29 293.67 602.34 301.44 582.02 305.97 C 548.61 313.32 513.36 312.59 480.33 303.63 C 460.27 298.07 440.71 288.98 425.48 274.51 C 415.31 264.38 407.49 250.68 408.14 235.93 C 408.51 220.27 417.88 206.35 429.46 196.46 C 453.19 176.61 484.19 167.81 514.47 164.61 Z" />
<path fill="#003772" opacity="1.00" d=" M 10.31 780.87 C 23.53 780.22 36.77 780.79 50.00 780.59 C 59.65 780.44 69.67 780.37 78.70 784.29 C 86.54 787.57 93.25 794.11 95.62 802.41 C 98.99 813.60 97.61 826.84 89.90 835.97 C 85.84 840.90 79.79 843.39 74.02 845.71 C 77.18 847.46 80.72 849.00 82.85 852.07 C 85.90 856.47 87.63 861.61 89.30 866.66 C 93.76 881.07 98.38 895.42 102.90 909.81 C 92.29 909.92 81.68 909.86 71.07 909.85 C 67.30 898.12 64.23 886.18 60.69 874.39 C 59.07 869.41 57.67 863.92 53.64 860.29 C 50.13 857.31 45.24 857.71 40.94 857.69 C 40.70 875.07 40.96 892.46 40.84 909.84 C 30.66 909.85 20.48 909.95 10.30 909.78 C 10.34 866.81 10.33 823.84 10.31 780.87 M 39.81 802.69 C 39.61 813.73 39.52 824.79 39.86 835.83 C 46.54 835.76 53.89 836.54 59.81 832.81 C 68.00 827.38 69.32 814.35 62.85 807.16 C 56.74 801.31 47.55 802.42 39.81 802.69 Z" />
<path fill="#003772" opacity="1.00" d=" M 341.17 780.77 C 350.19 780.45 359.23 780.49 368.25 780.75 C 368.47 788.73 368.65 796.72 368.14 804.69 C 359.16 804.70 350.19 804.68 341.21 804.70 C 341.07 796.72 341.11 788.75 341.17 780.77 Z" />
<path fill="#003772" opacity="1.00" d=" M 559.75 780.75 C 583.58 780.50 607.42 780.49 631.25 780.75 C 631.52 788.17 631.54 795.60 631.23 803.03 C 617.16 803.42 603.08 803.02 589.00 803.20 C 588.72 813.14 588.80 823.10 588.95 833.05 C 602.53 833.35 616.12 832.95 629.70 833.22 C 629.69 840.74 629.69 848.26 629.70 855.78 C 616.12 856.05 602.53 855.65 588.95 855.95 C 588.69 873.91 588.97 891.88 588.84 909.84 C 579.15 909.88 569.46 909.89 559.77 909.83 C 559.35 894.23 559.72 878.61 559.60 863.00 C 559.71 835.58 559.38 808.16 559.75 780.75 Z" />
<path fill="#003772" opacity="1.00" d=" M 772.17 780.77 C 781.19 780.45 790.22 780.49 799.25 780.75 C 799.61 810.16 799.29 839.58 799.40 869.00 C 799.53 882.60 799.06 896.22 799.82 909.81 C 791.23 909.89 782.64 909.94 774.05 909.78 C 773.61 905.48 773.26 901.17 772.94 896.87 C 770.08 900.63 767.37 904.71 763.32 907.31 C 757.18 911.31 749.38 911.92 742.32 910.58 C 733.83 908.83 727.18 902.18 723.40 894.64 C 718.36 884.59 716.87 873.14 717.09 862.01 C 717.01 850.54 719.07 838.42 726.07 829.04 C 733.81 818.58 749.22 815.95 760.74 821.19 C 765.68 823.35 768.86 827.88 772.00 832.06 C 772.37 814.97 771.99 797.87 772.17 780.77 M 753.42 838.35 C 748.93 840.49 747.08 845.62 746.26 850.21 C 745.18 857.07 745.45 864.05 745.57 870.97 C 745.82 876.56 746.63 882.44 749.82 887.19 C 752.88 891.84 760.17 893.02 764.47 889.43 C 767.58 886.89 769.31 883.09 770.30 879.29 C 772.52 870.42 772.48 861.11 771.01 852.13 C 770.29 848.06 769.05 843.88 766.31 840.69 C 763.18 837.08 757.64 836.65 753.42 838.35 Z" />
<path fill="#003772" opacity="1.00" d=" M 1032.98 780.77 C 1041.99 780.47 1051.01 780.47 1060.03 780.77 C 1060.38 804.84 1060.07 828.92 1060.18 853.00 C 1060.07 871.94 1060.37 890.89 1060.04 909.83 C 1051.01 909.90 1041.98 909.89 1032.96 909.83 C 1032.63 880.89 1032.92 851.94 1032.82 823.00 C 1032.93 808.92 1032.61 794.84 1032.98 780.77 Z" />
<path fill="#003772" opacity="1.00" d=" M 388.29 801.41 C 397.11 798.74 405.87 795.85 414.68 793.14 C 414.80 802.11 414.47 811.09 414.81 820.06 C 420.61 820.17 426.41 820.14 432.21 820.15 C 432.55 826.44 432.54 832.75 432.22 839.04 C 426.43 839.22 420.64 839.18 414.85 839.18 C 414.43 852.11 414.81 865.06 414.64 878.00 C 414.78 882.26 414.66 887.70 418.73 890.30 C 423.11 892.69 428.24 890.85 432.83 890.10 C 432.92 896.74 432.89 903.38 432.85 910.02 C 425.64 911.45 418.25 911.32 410.94 911.09 C 404.25 910.83 397.35 908.31 392.99 903.05 C 388.87 898.03 387.55 891.38 387.36 885.05 C 387.12 869.77 387.62 854.48 387.14 839.21 C 380.88 839.11 374.62 839.09 368.37 839.27 C 368.32 862.79 368.63 886.32 368.23 909.83 C 359.20 909.90 350.18 909.88 341.16 909.84 C 341.13 879.95 341.13 850.05 341.16 820.16 C 356.79 820.03 372.43 820.31 388.06 820.05 C 388.20 813.83 388.04 807.62 388.29 801.41 Z" />
<path fill="#003772" opacity="1.00" d=" M 123.30 823.25 C 132.14 818.30 142.83 817.66 152.63 819.56 C 161.31 821.24 169.31 826.52 173.80 834.21 C 180.68 845.49 181.30 859.18 180.82 872.04 C 163.21 872.46 145.58 871.90 127.97 872.30 C 128.29 878.15 130.33 884.21 135.17 887.87 C 141.21 892.90 149.54 892.71 156.96 892.46 C 163.32 892.37 169.58 891.12 175.66 889.33 C 175.76 896.21 176.09 903.08 175.99 909.96 C 168.72 911.18 161.33 911.19 153.98 911.37 C 143.49 911.36 132.48 911.01 122.99 905.98 C 113.29 901.08 106.59 891.46 104.04 881.03 C 100.97 868.60 101.33 855.08 106.24 843.16 C 109.60 834.95 115.45 827.56 123.30 823.25 M 132.54 839.55 C 128.53 844.43 128.26 851.08 128.07 857.10 C 137.45 857.52 146.84 857.38 156.22 857.19 C 155.93 851.11 155.54 844.44 151.47 839.54 C 146.97 833.74 137.03 833.75 132.54 839.55 Z" />
<path fill="#003772" opacity="1.00" d=" M 200.65 829.66 C 208.19 822.42 218.72 819.00 229.02 818.65 C 237.00 818.42 244.97 819.14 252.89 820.05 C 252.96 826.93 252.49 833.81 251.67 840.65 C 243.86 840.02 235.68 838.47 228.07 841.08 C 220.36 843.96 216.44 852.30 215.70 860.05 C 214.60 869.29 215.67 880.29 223.60 886.40 C 231.98 892.96 243.33 890.78 253.12 889.93 C 253.84 896.59 253.87 903.31 253.80 910.01 C 244.31 911.96 234.56 911.55 224.95 911.06 C 216.11 910.59 207.22 907.44 200.75 901.25 C 190.84 892.12 186.81 878.16 187.02 865.00 C 186.84 852.12 191.07 838.62 200.65 829.66 Z" />
<path fill="#003772" opacity="1.00" d=" M 263.04 835.04 C 268.77 826.21 278.56 820.18 289.01 818.97 C 296.31 818.09 303.91 818.66 310.83 821.25 C 318.54 824.14 324.79 830.31 328.20 837.76 C 333.16 848.41 333.87 860.46 333.23 872.03 C 315.70 872.42 298.15 872.00 280.61 872.21 C 280.69 877.06 282.03 881.99 285.30 885.69 C 288.74 889.61 293.84 891.84 298.99 892.30 C 308.74 893.04 318.65 892.28 328.01 889.38 C 328.35 896.26 328.63 903.14 328.33 910.03 C 317.62 911.48 306.75 911.54 295.97 911.12 C 285.70 910.77 275.17 907.52 267.57 900.38 C 260.19 893.58 256.39 883.72 255.17 873.92 C 253.41 860.62 255.39 846.32 263.04 835.04 M 284.34 840.37 C 280.97 845.28 280.56 851.43 280.61 857.21 C 289.88 857.41 299.16 857.42 308.43 857.20 C 308.51 851.20 307.95 844.76 304.25 839.78 C 299.58 833.55 288.56 833.70 284.34 840.37 Z" />
<path fill="#003772" opacity="1.00" d=" M 446.97 820.22 C 461.14 819.45 475.46 817.36 489.59 819.68 C 497.06 821.02 504.91 824.13 509.28 830.68 C 513.17 836.33 514.10 843.34 514.33 850.04 C 514.70 869.96 513.92 889.90 514.82 909.82 C 506.61 909.89 498.41 909.93 490.21 909.80 C 489.84 906.45 489.46 903.11 489.01 899.78 C 485.83 902.66 482.78 905.83 478.92 907.82 C 471.83 911.45 463.40 912.06 455.72 910.23 C 446.83 908.05 439.45 900.61 437.53 891.63 C 435.63 883.09 436.66 873.31 442.41 866.41 C 447.67 860.09 455.67 856.88 463.55 855.33 C 472.02 853.49 480.73 853.89 489.34 853.80 C 489.33 849.45 488.77 844.70 485.49 841.50 C 481.33 836.99 474.64 837.37 469.03 837.57 C 461.37 837.74 453.99 839.97 446.92 842.76 C 446.76 835.25 446.69 827.73 446.97 820.22 M 467.14 871.12 C 461.06 875.12 459.81 884.36 463.87 890.17 C 469.55 896.66 481.14 894.53 485.56 887.58 C 489.70 881.48 489.58 873.78 489.21 866.73 C 481.72 866.61 473.58 866.83 467.14 871.12 Z" />
<path fill="#003772" opacity="1.00" d=" M 641.42 834.44 C 647.38 825.64 657.41 819.81 667.98 818.85 C 676.20 818.09 684.87 818.94 692.27 822.83 C 698.65 826.17 703.62 831.88 706.50 838.44 C 711.20 848.93 711.83 860.70 711.24 872.03 C 693.58 872.40 675.90 872.05 658.24 872.18 C 658.96 877.19 660.08 882.49 663.77 886.23 C 667.22 889.82 672.07 891.86 676.99 892.30 C 686.74 893.05 696.64 892.27 706.02 889.39 C 706.33 896.26 706.62 903.14 706.32 910.03 C 695.27 911.51 684.07 911.57 672.95 911.06 C 662.34 910.55 651.50 906.78 644.09 898.93 C 637.40 891.94 634.09 882.39 633.06 872.92 C 631.47 859.69 633.65 845.52 641.42 834.44 M 662.75 839.78 C 659.03 844.76 658.51 851.20 658.60 857.21 C 667.87 857.41 677.16 857.41 686.43 857.20 C 686.48 851.20 685.95 844.76 682.24 839.79 C 677.74 833.71 667.23 833.63 662.75 839.78 Z" />
<path fill="#003772" opacity="1.00" d=" M 816.87 831.93 C 822.63 824.95 831.00 820.14 840.01 819.04 C 849.71 817.79 860.23 818.95 868.52 824.51 C 875.92 829.51 880.65 837.69 882.72 846.27 C 885.00 854.65 885.05 863.41 884.82 872.04 C 867.18 872.41 849.52 871.99 831.88 872.23 C 832.25 878.10 834.24 884.22 839.13 887.88 C 845.17 892.97 853.53 892.70 860.96 892.46 C 867.31 892.38 873.58 891.12 879.66 889.33 C 879.75 896.21 879.97 903.09 879.90 909.98 C 869.00 911.52 857.92 911.59 846.95 911.05 C 836.55 910.52 825.79 907.24 818.32 899.69 C 809.51 890.95 806.07 878.13 806.10 866.01 C 805.81 853.91 809.04 841.35 816.87 831.93 M 836.54 839.54 C 832.55 844.47 832.19 851.12 831.82 857.18 C 841.27 857.42 850.72 857.45 860.17 857.16 C 859.71 851.11 859.44 844.46 855.46 839.54 C 850.96 833.78 840.99 833.65 836.54 839.54 Z" />
<path fill="#003772" opacity="1.00" d=" M 953.16 820.20 C 963.09 819.53 973.02 818.70 982.98 818.59 C 993.07 818.87 1004.21 819.90 1012.13 826.87 C 1018.89 832.84 1020.46 842.35 1020.62 850.92 C 1020.87 870.56 1020.38 890.21 1020.94 909.85 C 1012.75 909.87 1004.56 909.93 996.37 909.79 C 996.07 906.16 995.71 902.54 995.34 898.92 C 991.52 903.73 986.68 907.93 980.66 909.65 C 970.72 912.74 958.66 911.55 950.86 904.14 C 943.64 897.48 941.77 886.70 943.52 877.38 C 944.89 869.87 949.95 863.29 956.74 859.85 C 968.56 853.44 982.39 853.74 995.44 853.81 C 995.60 848.96 994.53 843.65 990.59 840.44 C 986.24 836.95 980.26 837.43 975.03 837.59 C 967.44 837.81 960.11 839.98 953.11 842.78 C 953.15 835.25 953.09 827.72 953.16 820.20 M 974.38 870.38 C 967.40 874.10 965.61 884.50 970.42 890.58 C 976.28 896.43 987.31 894.40 991.68 887.64 C 995.83 881.58 995.79 873.95 995.67 866.91 C 988.47 866.39 980.85 866.89 974.38 870.38 Z" />
<path fill="#003772" opacity="1.00" d=" M 891.11 820.16 C 899.33 820.10 907.54 820.12 915.76 820.15 C 915.98 824.95 916.29 829.75 917.05 834.51 C 920.54 830.56 922.99 825.43 927.83 822.88 C 933.29 819.76 939.77 820.04 945.85 820.12 C 945.89 827.69 945.89 835.27 945.85 842.84 C 939.24 843.10 931.66 841.63 926.07 846.06 C 920.15 850.77 919.41 858.93 918.98 865.95 C 918.65 880.58 918.99 895.21 918.84 909.84 C 909.82 909.88 900.79 909.89 891.77 909.84 C 891.09 879.95 892.28 850.03 891.11 820.16 Z" />
</g>
</svg>
